<svg width="127" height="287" viewBox="0 0 127 287" fill="none" xmlns="http://www.w3.org/2000/svg">
<path d="M106.003 241.774C104.147 257.126 90.8643 268.148 76.3345 266.392C61.8047 264.635 51.5304 250.766 53.3862 235.414C55.2419 220.062 68.5251 209.04 83.0548 210.796C97.5846 212.553 107.859 226.422 106.003 241.774Z" fill="white"/>
<path fill-rule="evenodd" clip-rule="evenodd" d="M120.895 243.575C118.139 266.368 98.0505 284.126 74.5344 281.284C51.0183 278.441 35.7393 256.407 38.4945 233.614C41.2498 210.821 61.3388 193.062 84.8549 195.905C108.371 198.748 123.65 220.781 120.895 243.575ZM76.3345 266.392C90.8643 268.148 104.147 257.127 106.003 241.774C107.859 226.422 97.5846 212.553 83.0548 210.797C68.525 209.04 55.2419 220.062 53.3861 235.414C51.5304 250.766 61.8047 264.636 76.3345 266.392Z" fill="black"/>
<path d="M89.9823 190.984L63.7066 195.866L48.9622 138.683L41.4401 88.4174L37.469 42.1061L99.3755 29.9474L99.9319 75.3422L98.8027 118.015L89.9823 190.984Z" fill="white"/>
<path fill-rule="evenodd" clip-rule="evenodd" d="M52.6782 213.172L34.2428 141.675L26.5353 90.1705L21.3742 29.9813L114.154 11.7589L114.934 75.4493L113.779 119.117L103.552 203.72L52.6782 213.172ZM98.8028 118.016L89.9823 190.985L63.7066 195.867L48.9623 138.684L41.4401 88.418L37.469 42.1068L99.3755 29.948L99.9319 75.3428L98.8028 118.016Z" fill="black"/>
</svg>
