<svg xmlns="http://www.w3.org/2000/svg" viewBox="0 0 1202.39 270.31">
  <defs>
    <style>
      .cls-1 {
        fill: #fff;
      }

      .cls-1,
      .cls-2 {
        isolation: isolate;
      }
    </style>
  </defs>
  <g id="Camada_2" data-name="Camada 2">
    <g id="Camada_1-2" data-name="Camada 1">
      <polygon class="cls-1" points="0 23.88 1202.39 0 1202.39 218.29 0 270.31 0 23.88" />
      <g class="cls-2">
        <polygon points="576.22 37.27 481.32 37.27 322.74 245.68 417.64 245.68 576.22 37.27" />
        <polygon points="677.46 37.27 582.56 37.27 423.98 245.68 518.88 245.68 677.46 37.27" />
        <polygon points="778.7 37.27 683.8 37.27 525.22 245.68 620.12 245.68 778.7 37.27" />
        <polygon points="474.98 37.27 380.08 37.27 221.5 245.68 316.4 245.68 474.98 37.27" />
        <polygon points="76.37 37.27 0 137.63 0 245.68 12.69 245.68 171.27 37.27 76.37 37.27" />
        <polygon points="373.75 37.27 278.84 37.27 120.26 245.68 215.16 245.68 373.75 37.27" />
        <polygon points="272.51 37.27 177.6 37.27 19.02 245.68 113.93 245.68 272.51 37.27" />
        <polygon points="70.03 37.27 0 37.27 0 129.31 70.03 37.27" />
        <polygon points="1202.39 145.69 1202.39 37.27 1189.99 37.27 1031.41 245.68 1126.31 245.68 1202.39 145.69" />
        <polygon points="879.94 37.27 785.03 37.27 626.45 245.68 721.36 245.68 879.94 37.27" />
        <polygon points="1132.64 245.68 1202.39 245.68 1202.39 154.01 1132.64 245.68" />
        <polygon points="1183.65 37.27 1088.75 37.27 930.17 245.68 1025.07 245.68 1183.65 37.27" />
        <polygon points="981.17 37.27 886.27 37.27 727.69 245.68 822.59 245.68 981.17 37.27" />
        <polygon points="1082.41 37.27 987.51 37.27 828.93 245.68 923.83 245.68 1082.41 37.27" />
      </g>
    </g>
  </g>
</svg>