<svg xmlns="http://www.w3.org/2000/svg" viewBox="0 0 245.05 170.3">
  <defs>
    <style>
      .cls-1 {
        fill: #020202;
      }

      .cls-2 {
        fill: #0a0a0a;
      }
    </style>
  </defs>
  <g id="Camada_2" data-name="Camada 2">
    <g id="Camada_1-2" data-name="Camada 1">
      <path class="cls-1"
        d="M94.26,109.76c-.62-.49-1-1-.26-1.66,1.07-1,.65-2.59-.67-3.52s-2.93-2-3.39-4a2.13,2.13,0,0,0-3.4-1.21c-.89.65-1.28-.25-1.57-.52-1-1-1.29-2.39-1.71-3.67-.18-.56.47-1,1-1.26.84-.5,1.49-1.06,1.27-2.26a2.7,2.7,0,0,1,.82-2.52,5,5,0,0,0,.8-1.18c.15-.47.46-1.19-.57-1.25-.88-.84-2-1.45-2.16-2.86,0-.6-.76-.74-1.13-1.19a10.36,10.36,0,0,0,1-.92c.33-.42.27-1-.32-1-1.26-.08-1.57-1-2-1.86v0c.57-.74.78-1.77,1.77-2.18.25-.1.25-.26.06-.42a1.51,1.51,0,0,0-.52-.3c-.29-.08-.27.14-.25.34s.15.65-.3.64a.68.68,0,0,1-.6-.74c0-1.36-.63-1.66-1.9-1.36-.84.2-1.13-.46-1.08-1.18.06-.88.52-1.7-.32-2.61-.34-.38.46-1,.81-1.39.16-.19.16,0,.69.12,1.22.31,2.1.83,2.32,2.17.07.45.63.45.85.26a19.86,19.86,0,0,1,2.69-1.44.62.62,0,0,0,.07-1.09,5.39,5.39,0,0,0-1.78-1.08c-.52-.17-1.35.18-1.32-.71s-.24-1.89.88-2.23c.8-.25,1.06-1,1.59-1.55,1,1.52,2.34.06,3.55.55.33.13.61-.84.09-1.39-.32-.34-.71-.73-.26-1.11a.91.91,0,0,1,1.22.12c.77.71,1.5.19,2.18-.11s.62-.79.33-1.36c-1.05.79-1.05.79-2-.77-.35,1.64-2.55,1.32-2.85,3,0,.07-.34.16-.38.11A11.06,11.06,0,0,1,85,60.52c-.37-.83.75-1.32,1.57-1.54s1.39-.66,2.24-.12c.5.32,1,0,1.5-.32a2.69,2.69,0,0,1,2.87-.48c.73.34.78-.36.81-.81s-.3-.87-.2-.94c1.6-1.1,0-2.35.06-3.51,0-.48-.31-1-.81-.66s-1.73-.38-1.8.9c-.15,2.49-1,3.38-3.44,3.82-1.79.33-3.65.65-5.26-.49-1.37-1-2.94-1.75-4-3.13-.64-.84-.14-1.77-.09-2.65.08-1.14.14-1.15-1-.94-.46.08-.61-.24-.8-.51-.43-.6.06-1,.32-1.42.16-.27.28-.68.76-.4.17.1.31.29.48.34.36.09.82.39,1.08.05s-.06-.72-.37-1c-1-.86-1-1.5.16-2.26a1,1,0,0,1,1.28.07A3.9,3.9,0,0,0,83,45.58c.77-.08.68.87,1.17,1.22C85.79,48,87.32,49.4,89.36,50c.66.2,1.25.28,1.6-.22a1,1,0,0,1,1-.55c.69,0,.74-.63.64-1.21s-.39-1.16.27-1.64a9.37,9.37,0,0,1,1.5,4.18,11.39,11.39,0,0,0,1,2.92A2.11,2.11,0,0,0,98,54.79c1-.24,1.27-1.42.79-2.57a2.31,2.31,0,0,1,.09-2.49l.51-.27a6.78,6.78,0,0,1,1,2.25c.07.33.18.72.57.81s.59-.39.8-.68c.34-.48.5-1.44,1.26-1.11a2.7,2.7,0,0,1,1.56,2c.16,1.19,2.89,3.68,4.07,3.61.76-.05,1.42-.15,1.06-1.33-.49-1.58-.65-3.14,1.2-4.15,1-.55.83-2,1.61-2.81.5-.32,1.23-.32,1.49-1a11.29,11.29,0,0,1,1.19-.52c1.88-.63,1.88-.62,2.48,1.3a3.19,3.19,0,0,0,.27.69c.25.43.61.69,1.11.42s.7-.78.38-1.09c-1.06-1-.12-1.34.43-2a10,10,0,0,0,1.26-2.7c.27-.68.54-1.44,1.21-1.71.38-.16,1.28-1.48,1.58.32.11.69,1.51.57,1.86-.27a2.37,2.37,0,0,1,2.39-1.72,1.7,1.7,0,0,0,1-.46,2.77,2.77,0,0,1,2.69-.89c-.65-.7-.94-1.5-1.61-2.13s0-1.38.6-1.82c1.38-1.1,2.89-2,4.83-1.55a1.53,1.53,0,0,0,1.75-.73c.86-1.28,1.73-2.55,2.55-3.85A1.32,1.32,0,0,0,140,26.5a3.14,3.14,0,0,1-.75-3.27,9.45,9.45,0,0,0,.66-2.95c0-.17.11-.48.22-.5,1.87-.27.88-1.63,1.1-2.63A7.88,7.88,0,0,1,144.14,12a7.18,7.18,0,0,1,3.15-1.42,6.17,6.17,0,0,0,3.42-1c.81-.66,2.09.2,2.4,1.43a2,2,0,0,1-.33,1.8c-1.54,1.39-.64,2.86-.11,4.3.59,1.61-1.46,4.29-3.26,3.73s-2.34.46-3,1.56c-.08.12-.18.22-.27.33-.34,0-.45.13-.33.45a12.11,12.11,0,0,1-3.06,3.59,2.46,2.46,0,0,0-.76,2.77,3.94,3.94,0,0,1-.38,2.88c-.94,1.78-.45,3.06,1.41,4.28,2.6,1.72,2.6,1.72.14,3.37-.44.3-.91.55-1.35.85s-.67.61-.23,1.08a.74.74,0,0,0,1.16.09c.42-.4.76-.88,1.21-1.23,1.1-.88,2.06-.5,2.64.8a3.22,3.22,0,0,1-.51,3.88c-.88.94-.73,1.76,0,2.95a15.11,15.11,0,0,1,2.68,6.57c.63-.19.8-1,1.54-.74,1.6.52,1.93-.31,1.69-1.66a2,2,0,0,1,.77-1.94c1-.73,2.06-1.79,3.18-1.87a8.34,8.34,0,0,1,4.49,1,3.7,3.7,0,0,1,1.77,2.28c.65,2.06-.28,3.38-1.65,4.65-.45.42-1.7.82-.38,1.78.21.15.07.46-.17.6a.59.59,0,0,1-.8-.17c-.52-.87-1.36-.71-2.12-.75a3.46,3.46,0,0,1-2.94-1.13c-.5-.64-1.16-.41-1.74,0s-1.39.85-2.06,1.3c-.31.2-.57.46-.76-.11-.07-.19-.22-.44-.4-.35-2.37,1.25-3.1-.89-4.27-2.11a3.06,3.06,0,0,0-3-.18c-.52.52-1.27,0-1.84.51.63.71,1.36,1.39,1.9,2.07a8,8,0,0,0,2.84,2.46c.54.26.56.72,1.19.15a.82.82,0,0,1,1.33.43c.25.84,1,1.07,1.54,1.54.31.27.6.4.8-.07s.46-.54.82-.3.7.57.46,1c-.38.65.14.9.5,1.18.71.56.6-.31.87-.52.51-.4,1-.45,1.41.1s.05.91-.43,1.16-.95.16-.84.79.55.68,1,.79,1.1.12,1.15.74-.71.65-1.13.92c-.3,0-.71.08-.58.42s.47.13.71,0c.58.11,1.27.07,1.23.94s.64,1.62-.39,2.24c-.48.29-1.64.22-1.2,1.25s1.27.32,2,.22c.27.71-.72,1.39.13,2,.64.49,1.35.16,2,.29,1.09.22,1.83.17,2.32-.87a.57.57,0,0,1,.9-.14c1.84,1.55,3.7.9,5.56.29l.23.48A5.3,5.3,0,0,0,164.53,79c0,.53-.54.86-1.24.66-1.47-.42-2.72.52-4.14.59-.73,0-.69,1-.24,1.56a4.53,4.53,0,0,1,1,3.71c-.05.32-.12.74.3.89s.61-.24.72-.54c.55-1.46,2.14-1.14,3.09-1.76a6,6,0,0,1,.74,3.76c0,.17.19.44.12.53-1,1.28-.09,2.1,1,3-.73.37-1.16-.15-1.63-.21s-1-.27-1.29.33a1.23,1.23,0,0,0,.32,1.36.93.93,0,0,0,1.29.22,2.36,2.36,0,0,1,3,.48c.56.55,1.21,1,1.69-.18a.74.74,0,0,1,1.43,0c.14,1.22,2,1.93,1.06,3.4-.19.3.16.54.46.62.47.14,1,.31,1.39-.1,1-1,2.14-1,3.6-.83,1.24.14,2.57.93,3.85.23-.41.86.43,1.7,1.72,1.42,1.1-.25,2.11.57,3.19.07.59-.27.49,1.2,1.32.81.6-.28,1.08-.61,1.44.37a2.1,2.1,0,0,0,1.11.54c1.77.22,2.11,1.44,2.31,2.81l0,.52a10.38,10.38,0,0,0-2.16,2.65c-.24.38-.46.74-.18,1.2s.81.48,1.29.32c.39.2.69.69,1.23.42.44,0,.9.17,1.3-.09l.61.41c1,.31,1.87.63,1.46,2-.13.41.25.72.61.93.61.38.57-.3.8-.5a11.9,11.9,0,0,1,3.31-2.66c.67-.28,1.17-.55,1.35.52s1,1.4,1.83,1.8c.61-.37-.65-.9.06-1.17a2.15,2.15,0,0,1,1.72,0c.55.28,1,1,.34,1.23-1.25.47-.48,1.2-.31,2-1.17-.59-1.92-.1-2.83.37a4.09,4.09,0,0,1-3.52.39,1.17,1.17,0,0,0-1.18,0,3,3,0,0,0,1.87,1.34c.62.21,1,.53.61,1.19l-.28,0a2.66,2.66,0,0,1-2.15-.41c-1-.73-2.27.13-2.76,1.73l0,0a2.13,2.13,0,0,0-.58-.43c-1.73-.55-1.9-1-.76-2.24.2-.21.46-.36.5-.67a25.55,25.55,0,0,0-2.21-3.69c-.41-.17-.55,0-.49.39.12.62-.48.54-.94.75,1,.68,2,1.21,1.9,2.63-.93-1.62-2.86-1.4-4.06-2.43s-2.69-1-3.66-2.26c-.39-.5-.85.19-1.31.26-.93.14-2.13-.19-2.5,1.17-.1.37-.75.37-1.07.21-.64-.32-1,0-1.46.37.37-.71-1.44-1.48.3-2.08a1.34,1.34,0,0,0-1.77.14c-.91,1-1,.06-1.16-.52-.09-.27,0-.59,0-.87-.19-1-.66-1.23-1.56-.41.16-1.2-1.18-2.22-.12-3.37.24-.25-.11-.51-.44-.59s-.9.06-.93.46c-.14,1.85-1,1.39-1.91.54a2.5,2.5,0,0,0-2.13-.45c-1.61.23-2.09-.78-2.3-2-.15-.83-.64-1-1.08-.61a3.63,3.63,0,0,1-1.78.48c-1.87.38-2.5,0-2.94-2-.62,1.37-2.36,1-3.08,2.15,0,.07-.36,0-.54-.07-1.45-.51-2.24,0-2.08,1.48.08.7,0,1-.66,1.27s-.63,1.2-.61,1.81c0,.31.84.33,1.37.18.93-.25,1.47.15,1.43,1.12a1,1,0,0,0,.51,1.11c.45.25.95.62.6,1.15s-.86.27-1.32,0a1.64,1.64,0,0,0-.41-.12c.08,1.6,1.57,2.21,4.29,1.79.77.1-.22,1.54,1,1.27,2.09-.37,3.54.76,3.55,2.79,0,.79.6,1.2,1.09,1.7.21.22.68.41.45.81s-.69.24-1.07.17a.58.58,0,0,1-.28-.1c-1.78-1.82-3.86-1-5.81-.75-1.24.15-2.62.47-2.92,2.07a.49.49,0,0,1-.71.32c-.65-.35-1.33-.11-2-.21.07-.21.08-.41.17-.47.48-.33,1.52-.24,1.34-1-.25-1.06-.19-2.23-1-3.18-.48-.59-.74-.23-1,.17a22.62,22.62,0,0,0-1.35,2.52,2.21,2.21,0,0,1-1.4,1.3c-.64.21-1.12.23-.38.93.1.09.11.26.16.39-.8,0-1.23.84-1.94.88s-1.15-.52-1.47-1.12c-.77-1.47-3.22-1.93-4.23-.66-.8,1-1.72,2.06-1.62,3.54a3.87,3.87,0,0,1-.44,1.81,4.27,4.27,0,0,0,.16,3.15c.83,2.7,2.82,5,2.77,8a7.66,7.66,0,0,0,.66,2.11c.17.55.53,1.22-.21,1.53a1.58,1.58,0,0,1-2-.55,29.28,29.28,0,0,1-5.34-11.27c-.29-1.13.12-2.48-1.33-3.16-.06,0-.1-.26-.09-.26,1.68-.74-.09-1.75.1-2.62.15-.65-.44-1-.95-1.15a4.27,4.27,0,0,1-3-2.48,1.44,1.44,0,0,0-2.33-.59,2.77,2.77,0,0,1-3.49.29c-.85-.54-1.61.05-2.45.75-1.09.92-.85,1.9-1,3-.18,1.51-1.21,2-2.76,1.71a4.85,4.85,0,0,1-4-2.93,2.72,2.72,0,0,1,.11-2.23c.29-.77.22-1-.71-1.46-1.37-.59-2.9-.8-4.12-1.79-.44-.35-.47.08-.52.46-.09.66-.32,1-1,.27s-1.28-.09-1.7.34c-1.23,1.26-1.22,4.79,0,6.13-2.17.26-3.42-1.09-2.81-3,.45-1.47.29-1.69-1.36-2.12a15.36,15.36,0,0,1-1.81-.7c-.29-.12-.61-.2-.75.15a.48.48,0,0,0,.45.64,4.33,4.33,0,0,1,2.75,1.85c.42.49.54.67.14,1.29-.6.94-1.62,1.62-1.84,2.82-.08.47-.5.5-.93.47s-.76-.25-.78-.72a1.34,1.34,0,0,0-.45-1,3.44,3.44,0,0,1-.2-5.23c.24-.25.84-.33.5-.85a1.68,1.68,0,0,0-1.05-.8c-.14,0-.38,0-.42,0-.16.31.59,1.7-.8.53-.38-.32-1.26.68-1.66.54A4.94,4.94,0,0,1,94,114.39a2.55,2.55,0,0,1,1.51-4.29c.73-.19,1.23.59,1.94.58-1.78-1.81-1.93-1.86-2.87-.92Zm55.22,4.68-.38.1a8.86,8.86,0,0,0-.72-.53,1.26,1.26,0,0,0-1.63,0c-.52.46-.44.8.19,1.19.33.2,0,.51-.15.72-.41.44-.68,1.16,0,1.21s1.45,1.11,2-.19c.25-.57.39-1.54,1.11-1.65,1.43-.22,1.45-1.42,1.66-2.31s-.76-1.17-1.55-1.33A11.15,11.15,0,0,0,149.48,114.44ZM131,52.42a6.67,6.67,0,0,1,4.17.92,3.4,3.4,0,0,0,2.26.48c.57-.15.06-1.15.25-1.74.32-1,.78-2-.3-2.89-.12-.1,0-.46,0-.69.17-1.65-.73-2.41-2.27-1.94-1.33.41-3.11.33-2.18,2.68a3.78,3.78,0,0,1,.18,2.13C132.8,52.43,131.54,51.34,131,52.42Zm37,47.64c.14-.62,1-1.23-.18-1.84-.44-.23-.49-.85-.39-1.33s1.19-.79.45-1.4c-.57-.47-.46.75-1,.67-.79-.11-1.31.17-1.22,1s.15,1.58,1.23,1.77c.46.08.87.36.37.91a.37.37,0,0,0,.11.61C167.76,100.64,167.87,100.3,168,100.06Zm5.6,1.1a3.62,3.62,0,0,1,.31.55c.36,1.18.88,1.46,1.87.56.59-.54,1.25-.77,1.64.4.15.46,1,.46,1.16.31.37-.31.1-.78-.3-1.07s-.58-.53-.87-.52C176.21,101.39,175,100.81,173.61,101.16Zm11,.25c.56.1,1-.41,1.3-.66s-.12-.8-.4-1.07c-.52-.47-1,0-1.22.33S184.19,100.93,184.6,101.41ZM85.38,81a3,3,0,0,0,1.89-.63.7.7,0,0,0,.2-1.11c-.43-.49-.78-.17-1,.2S85.8,80.39,85.38,81Zm105.47,29.46c-.18-1.22.34-1.52,1.29-1.4-.43-.45-.72-1.1-1.32-.58S190,109.53,190.85,110.48Z" />
      <path class="cls-2"
        d="M192.93,80.07c-.13-.39-.79-.31-.71-1,.12-1.19-.73-1.62-1.82-1.54-.4,0-.81.18-1.05-.27a.85.85,0,0,1,.27-1c1-1,1.95-2,3.68-1.76,1,.12,2.09-.55,3.15.18.65.46,1.4.81,1.56,1.7,0,.26.21.51.5.4a.44.44,0,0,0,.15-.73c-1.27-1.25-.24-1.57.65-2.17a5.23,5.23,0,0,0,1.51-1.92c.27-.5.16-1.11-.71-1-.49.06-1.17,0-1.4.31-.71.85-1.06.93-1.59-.21-.34-.75-1.1-.45-1.71-.28-.4.1-1.15.4-1.09-.12.2-1.57-1.59-1.55-2-2.64a1.19,1.19,0,0,0-1.56-.53c-.52.22-.39.78-.34,1.15.11.71.6.71,1.19.5.27-.09,1,2,.85,2.49-.32,1.16-.74,2.14-2.25,2.27-.61.06-1,.19-1.45-.36a1.86,1.86,0,0,0-.82-.63,2,2,0,0,1-1-3.11,10.08,10.08,0,0,1,2.26-.91c.37,0,.75-.1.82-.46a1.07,1.07,0,0,0-.81-1.25c-.81-.06-1.26-.77-2-.88-.19,0-.49,0-.37-.27.93-1.82-.66-1.57-1.59-1.88.07-.76,1-.32,1.09-.59.46-1.51,2.24-1.73,2.89-3a1.38,1.38,0,0,0,0-.47c.6.18,1,.74,1.75.6,1.45-.28,2.41.59,3.09,1.76.48.83.87,1.36,1.67.33.41-.54,1.13-.25,1.68-.19,2,.24,3.95.7,4.89,2.81.47,1.06.88,2.16-.13,3.1a1.47,1.47,0,0,0-.09,2c.49.54,1.27.11,1.76-.42.22-.24.34-.61.79-.29a.5.5,0,0,0,.42.07c.38-.17-.48-1.6.71-.85,1.88,1.18,4.86,1.67,4,5a3.83,3.83,0,0,1-3.51,2.9c-1.41.1-2.51.93-3.77,1.39-.3.1-.47.41-.91.19-2.29-1.13-2.9-1-4.67.78a2.53,2.53,0,0,1-2.59.54c-.56-.15-1.21-.45-1.51.36Z" />
      <path class="cls-1"
        d="M216,40.57a.53.53,0,0,1-.13.23l-.46.08-.5-.28-.12-.54c.49-.55,1.2-.9,1.49-1.63l.65-.82c.92.48.88-.37.91-.75a1.58,1.58,0,0,1,1.13-1.44,5,5,0,0,0,2-2.15c.44-.64.92-1,1.68-.4.18.1.4.19.54,0s.07-.53-.16-.76v0l.41-.37c1.42,1.38,2.26,1.42,3.25.06.78-1.06-.5-1.79-.7-2.7-.05-.21-.33-.37-.5-.55-.39-.41-.63-.93-.14-1.27s.51.43.82.58c1.37.7,1.44,2,1.76,3.25.11.41,0,.93.69,1,.39,0,.71-.67,1-.25,1.37,1.75,4.12,2.23,4.59,4.75.2,1-.4,1.94-.77,2.86-.6,1.5-1.67,2.76-1.66,4.6,0,.64-1.17,1.4-1.76,2.16-.29.38-.65-.19-1-.41a2.32,2.32,0,0,0-3.52.33,2.11,2.11,0,0,0-.37.75c-.13.4,1,1.13-.23,1.21-.77,0-1.84.6-2-.93a1.08,1.08,0,0,0-1.06-.9c-1.32-.12-2.51-1.37-4-.48-.39.24-.7-.4-.56-.61,1.17-1.71-.49-3-.82-4.45.05-.18.05-.4-.18-.42S216.09,40.48,216,40.57Z" />
      <path class="cls-1"
        d="M169.68,70.31a1.47,1.47,0,0,1,.29,0c1.14,0-.57-1.21.47-1.26.66,0,.85-.23,1.07-1a23.74,23.74,0,0,1,1.09-2.82c.34-.76,2.3-.81,2.9.07.95,1.38,2.48,1.56,3.72,2.28A3,3,0,0,1,181,69.83c.17,1.21,1.31,2.37.16,3.66-.33.37.31.73.68.57,2.71-1.13,4.24.75,5.88,2.36a2.44,2.44,0,0,0,.46.39c1.24.73,1.58,1.49.2,2.35a1.27,1.27,0,0,0-.48,1,1.84,1.84,0,0,1-.46,1c-2,2.37-6.48,2.51-8.83.27a1.85,1.85,0,0,1-.67-1.85,3.59,3.59,0,0,0,.14-.86c0-.78.51-2.07-.27-2.2S175.24,76,174.85,78c-1.22-2.74-3.27-3.53-5.75-3.54L169,74c1.49-1.16,1.53-1.46.48-3.21Z" />
      <path class="cls-2"
        d="M63.6,49.62c-1.1,0-1.43.87-2,1.58-.35.45-.53,1.52-1.61,1,0,0-.1,0-.15,0-1-.11-.54,1.15-1.24,1.32s-.4-1.49-1.37-.6a.7.7,0,0,1-1.12-.31c-.22-.43-.26-.83.27-1.1.88-.44.31-1.19.28-1.81a.39.39,0,0,0-.51-.38c-.74.14-.88.67-1.13,1.29-.59,1.42-.4,3.31-2.15,4.08-.73.32-1.4,1.23-2.37.13-.36-.41-1-.06-1.54.11a1.41,1.41,0,0,1-1.82-.45c-.51-.66-.43-1.08.14-1.56.35-.3.33-.63-.1-1a9.9,9.9,0,0,1-1-1c0-.42,1,.22.67-.56-.2-.48-.43-1.31-1-1.07-1.14.48-1.62-.62-2.45-.77-.57-.11-.5-.53-.46-.92.07-.64.3-.5.72-.19s.44-.25.68-.38a9.85,9.85,0,0,1,4.92-1.45,2.37,2.37,0,0,0,2.28-1.24c.66.29-.31,1.25.67,1.33.55,0,1.25.34,1.18-.68,0-.21.33-.06.46,0,1.07.74,2,.44,3.14.06.81-.29,1.58.9,2.58.72.14,0,.22.36.08.49-1.31,1.15.24,1.39.71,2s.74.08,1.06-.08.52-.69.29-.84c-1.48-1-.15-1.45.2-2.11.11-.2.23-.4.29-.5,1.19.59,1.11,2.22,2.63,2.55.7.16.58,1.26-.16,1.72-.35.21-.93,0-1.09.57Z" />
      <path class="cls-2"
        d="M219.14,55.37a6.69,6.69,0,0,1-4.53,1.44c-.59-.18-.65-.55-.5-1a.74.74,0,0,0-.41-1,.65.65,0,0,0-.82.07A.82.82,0,0,0,213,56c.8,1.07,1.63,2.11,2.51,3.12.43.49,1,.21,1.54.12,1.67-.27,2.6.2,2.92,1.47.38,1.5-.17,2.37-1.89,2.77-.84.2-1.71.59-2.52-.39a.9.9,0,0,0-1.39.17c-.83,1.43-2.47,1.19-3.73,1.62-.66.22-1.55-1.11-2.53-1.07-1.77.08-.84-1.91-2-2.28,1.08-.89.36-2.56,1.45-3.46.42-.34,1.18-.87.64-1.37s-.13-2.06-1.68-1.63a1.35,1.35,0,0,1-1.27-.66c-.19-.26,0-.43.25-.56.48-.28,1-1,1.54-.48.84.75,1.24.29,1.94-.13a2.53,2.53,0,0,1,3.05.33c.92.8,1.48.44,1.83-.37a3.52,3.52,0,0,1,2.65-1.81,2.52,2.52,0,0,1,2.89,1A2.34,2.34,0,0,1,219.14,55.37Z" />
      <path class="cls-2"
        d="M91.15,153.22c.34-.67,1.06-.87,1.75-1.11.35-.12.62-.28.56-.72a.79.79,0,0,0-.77-.76,20.69,20.69,0,0,0-2.08-.1,3.2,3.2,0,0,1-2-.63c-.57-.41-1-.9-.77-1.61s.84-.57,1.38-.49c1,.15,1.34,0,.78-1-1.58-2.88-1.5-5.88-.86-8.87a10,10,0,0,0,.17-1.42,1.92,1.92,0,0,1,1.41-1.83c.84-.22,1.42.37,1.83,1a18.15,18.15,0,0,0,2.14,3,1.84,1.84,0,0,1,.36,1.54,2.18,2.18,0,0,0,.07,1.28c1.41,2.08.67,4.15.31,6.22-.07.43-.2.59.35.84,1.52.69,2,2.54.85,3.54-1.46,1.21-1.24,2.92-1.71,4.41-.19.61-.2,1.28-1,.49a2,2,0,0,0-1.23-.44C90.65,156.26,90,154.88,91.15,153.22Z" />
      <path class="cls-1"
        d="M133.16,151c-1.54,2-5.53,3-7.88,2-.13-.06-.33-.15-.35-.24-.3-1.5-1.7-2.41-2.16-3.84-.93-2.87,1.35-6.34,4.34-6.81,4.28-.67,6.36,2.11,7.22,4.91A4.41,4.41,0,0,1,133.16,151Z" />
      <path class="cls-2"
        d="M228.26,58.11c.84-1.09,1.92-2,1.17-3.47-.23-.47,0-.86.52-.69.71.24.93-.31,1.09-.64s-.34-.64-.61-.92-.43-.42-.64-.63-.37-.59-.07-.89a.89.89,0,0,1,.9-.36.62.62,0,0,1,.48.8c-.29.77-.09,1.54.68,1.62s2,1.23,2.54-.55c.09-.34,1.38-.24,2.08-.47.91-.29,2-.46,2-1.81a.29.29,0,0,1,.08-.2c1.22.21,1.92-.82,2.89-1.2,1.42-.54,2.08.32,3,.85.11.06.29.2.27.28a7.11,7.11,0,0,0,.42,3.52c.22.69-2.23,2.41-3.11,2.56s-2.43.06-2,1.84c0,.15-.26.37-.4.56-.69-1.11-2,.39-2.69-.69-.53-.82-1-.44-1.37.05-1.6,2.28-2.43,2.38-4.92.48C229.83,57.6,229.14,58.24,228.26,58.11Zm9.61-6.63.14,0a1,1,0,0,0-.1-.18s-.08,0-.12,0Z" />
      <path class="cls-2"
        d="M216.88,37.61l-.65.82-.12-1.07c-.86,0-.05,1.73-1.46,1.27-.76-.25-1.58.17-1.57.82,0,.9.95.47,1.52.56l.14.05.12.54c-1.52-.13-2.94.5-4.46.49-.07-.78.51-.71.86-.89s.56-.24.48-.61a.63.63,0,0,0-.66-.5c-1.41.17-1.94-.44-2.05-1.82-.08-.91-1.83-1.63-2.62-1.13a1.44,1.44,0,0,1-2.06-.33c-.55-.72-.41-1.44.54-1.87s1.35-.95.44-1.88c.57-.34,1.3.46,1.65-.12s-.51-.71-.77-1.2c.79,0,1.69.42,2-.69.06-.2.81-.15,1.23-.24.86-.16,1.72-.15,1.88-1.39.11-.83.9-.36,1.43-.14,2.49,1,3.73,3.15,4.59,5.4C217.86,34.91,217.35,36.34,216.88,37.61Z" />
      <path class="cls-2"
        d="M48.4,64.9a1.53,1.53,0,0,0-.76.89c-.36.72-.68,1.45-1.74,1-.61-.26-1.36-.59-1.1-1.35a1.91,1.91,0,0,1,2-1.41,10.07,10.07,0,0,1,1,.13l-3.11-2.67c1.43.21,2.56.48,3.52-.37a3.42,3.42,0,0,0,.94-1.91c.25-1.5,1.25-.81,2-.9a.9.9,0,0,1,.66.31c1.24,1.55,2.54,3.07,3.65,4.71.42.62.35,1.71,1.35,1.69a2.26,2.26,0,0,0,2.32-1.59,5.57,5.57,0,0,0,1.52,2c.62.49,1.13,1.21,0,1.84-.53.29-.52.66.1,1,.44.26.37.76.11,1.17a.71.71,0,0,1-.91.25.73.73,0,0,1-.49-1c.07-.32.23-.85-.29-.67S58,67.17,57.3,68a16.75,16.75,0,0,1-2.2,1.82A1.51,1.51,0,0,1,53,69.21C52.73,67.48,51.5,68,50.67,68c-1.67-.06-2.38-.81-2.07-2.55C48.63,65.22,48.72,65.06,48.4,64.9Z" />
      <path class="cls-2"
        d="M176.26,25.1c.5-.9.62-1.66-.49-2.1-.08,0-.21-.16-.19-.2.78-1.88-1.48-2.94-1.46-4.63,0-.36-.06-.61.35-.8a13.94,13.94,0,0,1,5-1.24,10.83,10.83,0,0,1,4.9.78,2.79,2.79,0,0,1,1.85,2.91c0,2-.95,3.81-1.64,5.65-.17.44-.58.93-1.08.84a7.53,7.53,0,0,0-3.94,0c-.14,0-.49-.11-.51-.21C178.72,24.27,177.47,25.14,176.26,25.1Z" />
      <path class="cls-2"
        d="M66.51,75.54c-.12-1.12-.17-1.74-1.36-2a1.65,1.65,0,0,1-1-2.37c.55-1-.76-1.19-1-1.87-.18-.48-1.2-.54-.95-1.14a2,2,0,0,1,1.32-1c1.39-.26,1.76-1,1.2-2.24a2,2,0,0,1-2.73.41c-.34-.24-.67-.54-.56-1s.47-.42.84-.38,1,0,1-.4c-.06-1.45,1.45-1.5,2-2.37.29-.44.79-.31,1.15.08s.29.62-.09.85-1,.62-.71,1.25a2,2,0,0,0,1.58,1,4.22,4.22,0,0,0,1.32-.07,3.54,3.54,0,0,1,3.83,3.47,1,1,0,0,1-1,1c-1.2.06-1.12.7-.84,1.61a5.81,5.81,0,0,0,2.29,2.68c.45.38.68.13.93-.22a.62.62,0,0,1,.92-.11.51.51,0,0,1,.19.65c-.14.31-.31.61-.74.59a20.57,20.57,0,0,0-2.21-.11c-.7,0-1.7-.52-1.78.93,0,.52-1,.64-1.52.21C67.69,74.27,67,74.22,66.51,75.54Z" />
      <path class="cls-2"
        d="M9.78,113.65c-.36-.17-.45-.4-.38-.65.24-.83-.13-1-.91-1-1.25.12-2.4.18-2.91-1.49-.28-.91-3.41-1.53-4.42-1.08-.3.13-.42.79-.93.36a.76.76,0,0,1-.12-1c.21-.43.59-.78,1-.59a3.43,3.43,0,0,0,2.45-.14c1.44-.39,1.62-1.07.58-2.26,2,.24,1.2-1.11,1.24-2.07a6,6,0,0,0,3.17,0c-1.17-.7-1-1.5-.31-2.18a1.54,1.54,0,0,1,2.16.08c.35.27.75.78.47,1.14-.84,1.06,0,1.5.7,2.07s1.34,1.25,2.08,1.8-.37.52-.22,1a3,3,0,0,1-.32,2.63c-.23.37.11.52.42.56a8.08,8.08,0,0,1,1.32.15c.63.22,1.33.73.9,1.38s-.83,1.8-2,1.07c-.57-.37-2-.53-1.16-1.87.22-.36-.27-.51-.52-.36C11.16,111.83,9.72,112,9.78,113.65Z" />
      <path class="cls-2"
        d="M170.29,117.69c1.21-1.09,2.26-2.3,4.29-1.57-1.67,1.45,0,3,.08,4.63-.8-.28-1.56-.68-1.74.62,0,.28-1.15.46-1.47,1.25-.16.4-.67-.11-.85-.45a1.28,1.28,0,0,0-1.82-.69c-.59.22-1.38.3-1.74-.38s.23-1.2.74-1.53,1-.6.3-1.29c-.48-.48,0-.88.26-1.26a3.77,3.77,0,0,0-.68-4.79,2.52,2.52,0,0,1-.67-.79,2.06,2.06,0,0,0-2.6-1.3c.77-.94,0-1.73.08-2.48.13-1.35-1.07-1.17-1.67-1.63-.37-.29-.83-.44-.61-1a1.67,1.67,0,0,1,1.67-1.17,1,1,0,0,1,1,.87,5.54,5.54,0,0,1-.32,2.33c.66-.31,1.25-.48,1.75.05s1.07,1.41,2.17,1c.34-.12.56.33.63.7a2.11,2.11,0,0,0,1.29,1.55,1.33,1.33,0,0,1,.82,1.62c-.35.91-.23,1.23.7,1.7.5.25,0,.87-.54,1C169.81,115.22,169.46,116.06,170.29,117.69Z" />
      <path class="cls-2"
        d="M63.17,75.77c1.07.63.92,1.22.48,2-.86,1.41-.8,1.49.76,1.77.31.05.81,0,.71.52-.17.87.86,1.9-.15,2.59s-1.18,1-.08,1.78A1.69,1.69,0,0,1,64.45,87,8.11,8.11,0,0,0,61,89c-.35.37-.56,0-.69-.17-.73-.67-2.16-.44-2.33-1.86,0-.31-.67-.33-1.07-.34s-.77-.06-.8-.5.32-.68.78-.64,1,.15.85-.56-.68-.51-1.1-.51a2.56,2.56,0,0,0-.85.23,1.14,1.14,0,0,1-1.41-.55c-.24-.41.2-.88.58-1a1.29,1.29,0,0,1,1.6.34c.82,1.13.82,1.14,1.45,0,.22-.38.51-.08.75-.07.93.08,1.23-.87,2-1.1-.23-.59,0-1.38-.86-1.72a.79.79,0,0,1-.41-.89,6.11,6.11,0,0,1,1.23-3.85C61.57,74.92,62.46,75.54,63.17,75.77Z" />
      <path class="cls-2"
        d="M84.1,136.78c-.67.88-1.29,1.4-1.41,2.28-.13,1.07-.84,1.39-1.8,1a6.75,6.75,0,0,0-2.76-.47,2.21,2.21,0,0,1-2-3c.77-2.08,2.49-3.43,3.86-5,.93-1.1,3.1-.18,3.46,1.37.12.52,0,1.07.12,1.6s.07.79.8.44c1-.46,3.09.87,3.38,1.93A2.25,2.25,0,0,1,85.82,140a.82.82,0,0,1-1-.59A8.34,8.34,0,0,1,84.1,136.78Z" />
      <path class="cls-2"
        d="M69.36,129.51a12.39,12.39,0,0,1,1.29-.82,2,2,0,0,0,1.15-1c.21-.44.7-1.64,1.38-.14,0,.11.3.26.35.23,1.32-.83,1.43.51,2,1.1,1.81,2,1.53,4.33-.35,6.34-.69.75-1.65,1.69-2.26,1.76a3,3,0,0,0-2.69,1.77c0,.09-.38.13-.52.07-.29-.14-.22-.44-.1-.64.82-1.44.12-2.66-.72-3.87-.11-.16-.26-.38-.24-.53C68.85,132.38,69.1,131,69.36,129.51Z" />
      <path class="cls-2"
        d="M52.79,87.39a3,3,0,0,0,1.5.2,4.31,4.31,0,0,1,3.17,1.51c1.31,1.18,2.42,2.65,4.09,3.44.86.41,2.31,3.35,2,4.15C63.11,98,61.71,97.8,60.71,98a2.88,2.88,0,0,1-2.88-1.26A7.23,7.23,0,0,0,55,94.38c-1.5-.81-2.1-1.8-1.49-3.23S53,88.74,52.79,87.39Z" />
      <path class="cls-2"
        d="M121.91,29.65a4.75,4.75,0,0,1,8.08,0,3.09,3.09,0,0,1-1.75,4.82c-3.46,1-5.51.15-7-3.05C121,31,121,31,121.91,29.65Z" />
      <path class="cls-2"
        d="M84.69,87.87c-1.46,1.88-2.69,2.76-3.94,2.83,1,1.54.86,2.76-.54,3.56a2,2,0,0,1-2.59-1.09c0-.14,0-.34-.09-.42-1.14-1,0-1.44.56-1.82.75-.51,1-1,.11-1.5s-.67-2-1.78-2.4c-.09,0-.14-.5-.07-.53.83-.46.92-1,.29-1.77-.14-.18.13-.44.38-.52a.34.34,0,0,1,.47.23c.37,1.21,1.1.51,1.59.27a4,4,0,0,1,4.74.59c.77.66.05,1.63.78,2.21v0c-.15.19-.4.4.1.46Z" />
      <path class="cls-2"
        d="M91.82,110.69c-1.2,1.79-4,2.09-5.67,1.2-1.3-.69-2.78-4.32-2.21-5.19C85.06,105,89.15,104,90.65,105A4.22,4.22,0,0,1,91.82,110.69Z" />
      <path class="cls-2"
        d="M83.06,101.65c-.6,1.12-1.76,1.2-2.91,1.1-1.3-.1-1.79.35-1.71,1.63,0,.4.6,1,0,1.22-1,.44-1.72,1.72-3.21,1.24-.83-.26-1.62-.45-2-1.37a1.64,1.64,0,0,0-.6-.82c-1.09-.57-.43-1.08.08-1.27a2.48,2.48,0,0,0,1.67-1.46c.06-.15.29-.39.39-.36,1.64.39,1.91-1.17,2.77-1.85a5.58,5.58,0,0,1,3.71-1.43,2.09,2.09,0,0,1,2,1.13A1.93,1.93,0,0,1,83.06,101.65Z" />
      <path class="cls-2"
        d="M95.59,29.77c.26,1.49,1,2.83.77,4.5-.24,1.45,1.07,2.71,2.1,3.76s.49-.71,1.1-.67a8.24,8.24,0,0,1-.2,6c-.37,1-1.5.28-2.29.32s-.38-.61-.56-.85c-1.16-1.6-1-3.13-.82-5,.15-1.31-1.07-2.89-1.85-4.25-.66-1.16-.35-2.39-.74-3.55a.64.64,0,0,1,.46-.81,1.83,1.83,0,0,1,2,.56Z" />
      <path class="cls-2"
        d="M156.79,36.23a4.16,4.16,0,0,1,4.6-1.79c1.62.4,2.25,1.75,2.75,3.09.37,1-1.73,3.48-2.86,3.47-1.55,0-3.06-.53-4.66-.17a1.06,1.06,0,0,1-1.08-1.6C156.11,38.17,156.41,37,156.79,36.23Z" />
      <path class="cls-2"
        d="M200.91,35.36c-.88,1.36-3.77,1.56-5,.35-.07-.07-.18-.1-.24-.17-.29-.35.68-1-.24-1.1-.31,0-.64.53-1,.74a3,3,0,0,1-4.31-2.37c0-.6.57-.39.85-.6a2.84,2.84,0,0,1,3.85-.06.78.78,0,0,0,1.15,0,3.56,3.56,0,0,1,4.52.32A2.23,2.23,0,0,1,200.91,35.36Z" />
      <path class="cls-2"
        d="M165.27,56a6.27,6.27,0,0,1,2.92-1.8A7.58,7.58,0,0,0,173,51.62a3.78,3.78,0,0,1,5-.35,3,3,0,0,1,.31,3.85c-1.19,1.74-3.08,1-4.62,1.34-.62.16-.88-.48-1-1.17-.35-1.74-.81-1.94-2.41-1.18S167.19,55.85,165.27,56Z" />
      <path class="cls-2"
        d="M162.32,18.59a21.6,21.6,0,0,1,4-2.15c.42-.16.87.13,1.22.44.59.52.7,3.6.14,4.12-.74.68-1.48,1.36-2.25,2-.94.8-2,1.28-3.19.4s-1.32-1.82-.7-3.23C161.76,19.74,162,19.31,162.32,18.59Z" />
      <path class="cls-2"
        d="M83.64,163.93a3.18,3.18,0,0,1,3-1,2.52,2.52,0,0,1,2.05,2.28c.26,1.94-1.64,4.71-3.53,5.06a1.09,1.09,0,0,1-1.15-.49A4.94,4.94,0,0,1,83.64,163.93Z" />
      <path class="cls-2"
        d="M106.47,34.63c1.3-1.93,2.16-1.9,3.71-.15,1.07,1.22,1.71,2.3.59,3.69-.11.14,0,.42-.16.55-.4.45.36,1.48-.28,1.46-1.16,0-2.5.38-3.47-1C105.67,37.5,105.45,36.15,106.47,34.63Z" />
      <path class="cls-2"
        d="M30.28,86.17a3.1,3.1,0,0,1-4.43.63c-1-.69-1.46-2.74-.89-3.57s3.67-1.43,4.6-.78A2.48,2.48,0,0,1,30.28,86.17Z" />
      <path class="cls-2"
        d="M142.33,148.82a4.86,4.86,0,0,1-1.66-2.59,9.25,9.25,0,0,0-2.37-4.38c-1-1-.52-2.29-.4-3.45a.45.45,0,0,1,.78-.28c.82.95,2.08,1.63,2,3.13,0,1.09.18,2.06,1.64,2.19a.66.66,0,0,1,.54,1.08c-.79,1.08-.42,2,.35,2.89a1.17,1.17,0,0,1,.11,1.5C143,149.34,142.67,149.05,142.33,148.82Z" />
      <path class="cls-2"
        d="M226,59.83c2,1.4,1.95,2.84.23,4.48a2.16,2.16,0,0,1-2.49.48,5.81,5.81,0,0,1-2.25-1.85c-.23-.3.2-1.06,0-1.69-.44-1.26.79-.47,1.16-.78a6.24,6.24,0,0,1,1.72-.76A1.71,1.71,0,0,1,226,59.83Z" />
      <path class="cls-2"
        d="M152,130.53c-.34,1-1.57.6-2.22,1.21-.19-1.14-1.56-1.12-2-2-.75-1.5.57-4.06,2.21-4.2a2.56,2.56,0,0,1,2.64,3.4C152.45,129.44,152.64,130.1,152,130.53Z" />
      <path class="cls-2"
        d="M89.9,125.22a3.1,3.1,0,0,1,2-1.22,4,4,0,0,0,1.81-.48,1.41,1.41,0,0,1,2,1.15A3.65,3.65,0,0,1,91,128.51C90.22,128.29,89.42,125.92,89.9,125.22Z" />
      <path class="cls-2"
        d="M68,96.47a2.68,2.68,0,0,1,.87,3.57A2.32,2.32,0,0,1,66,101c-.8-.35-1.67-.23-2.34-1.29-.56-.91-.61-1.42,0-2a3.32,3.32,0,0,0,.64-1.27c.21-.46,1.2-.76,1.86-.75A5.09,5.09,0,0,1,68,96.47Z" />
      <path class="cls-2"
        d="M61.94,145.48a6.33,6.33,0,0,0-1.74,2.44c-.59,1.39-3.3,1.32-4.23.06-.77-1,.51-3.32,2.07-3.38.8,0,1.12-.16,1.48-.88a1.47,1.47,0,0,1,2.25-.59C62.74,143.75,62.52,144.52,61.94,145.48Z" />
      <path class="cls-2"
        d="M67.94,49.47c-.14.06-.27.07-.31.14-.5.69-1.15.37-1.72.12-.34-.15-.19-.52,0-.76.41-.53.91-.86,1.61-.42.16.1.32.33.46.1.44-.73,1-.43,1.46-.06A1,1,0,0,1,69.56,50c-.38.51-.11.77.45,1.1s1.53.84.9,1.81-1.22.68-2,0c-.53-.45-.85,0-1.1.44a3,3,0,0,1-3.33.66c-.47-.37-.07-.64.15-1,.73-1,1.91-1.6,2.76-2.5C67.71,50.32,68.21,50.18,67.94,49.47Z" />
      <path class="cls-2"
        d="M202.81,13.9a2.89,2.89,0,0,1-4.14.73,2.78,2.78,0,0,1-.85-3.53c.56-.78,3.08-1.23,4-.71A2.54,2.54,0,0,1,202.81,13.9Z" />
      <path class="cls-2"
        d="M184.88,34.87a3.34,3.34,0,0,1,3.83-.5c1.19,1,1.46,2,.72,2.86-1,1.12-3.44,1.39-4.49.49A2.56,2.56,0,0,1,184.88,34.87Z" />
      <path class="cls-2"
        d="M111.6,43.49c-1-1.26-.73-2.09,0-2.89,1-1.13,1.88-2.27,1.36-4-.26-.87,1.29-2.16,2.36-2.07s1.07,1,1.19,1.84c.2,1.44-.11,2.32-1.76,2.48-1.28.13-1.72,1.3-2.31,2.22A5.73,5.73,0,0,0,111.6,43.49Z" />
      <path class="cls-2"
        d="M82.35,129.11c-.83-.48-.8-1.46-1.74-1.44-.22,0-.14-.39,0-.62.42-1.06,3.3-2.35,4.43-2s1.61,2.87.81,3.59A3.18,3.18,0,0,1,82.35,129.11Z" />
      <path class="cls-2"
        d="M39.51,77.43c-1.12.47-1.41,2-3,1.87-1.3-.12-1.56-1.78-2.94-1.86-.24,0-.6-1.07-1.07-1.57-.15-.16.08-.44.27-.61a.71.71,0,0,1,.95-.07c.57.45,1,1.57,1.59,0,.12-.32,1.94-.15,2.74.77C38.5,76.4,39,76.85,39.51,77.43Z" />
      <path class="cls-2"
        d="M192.15,90.71a5,5,0,0,0,.77.35c.4.12,1-.25,1.17.33s-.55.67-.87,1a6.36,6.36,0,0,1-1.37.79c-.2.09-.51.18-.58-.17s.48-.79-.31-.81a1,1,0,0,0-1,.61c-.59,1.2-1.34,0-2-.13s-.81-1-.4-1.56a6.39,6.39,0,0,1,1.58-1.5c.53-.31,1.71-1.28,2.18.43C191.42,90.27,191.85,90.46,192.15,90.71Z" />
      <path class="cls-2"
        d="M130.47,24.11a2.1,2.1,0,0,1-.73-2.8,2.63,2.63,0,0,1,3.79-.32,1.75,1.75,0,0,1,.59,2.53A2.8,2.8,0,0,1,130.47,24.11Z" />
      <path class="cls-2"
        d="M200,56c1,.63.84,1.5.22,2.39-.82,1.22-2.9,1.74-3.75.74-.5-.58-1.22-1.57-.78-2.44C196.41,55.19,198.4,54.88,200,56Z" />
      <path class="cls-2"
        d="M58.14,55.57a4.34,4.34,0,0,0,1.29,1.23c.49.25.82.62.67,1.18s-.42,1-1.07,1S58,59.47,57.64,60c-.52,1-1.45.88-2.27.52A2,2,0,0,1,54.71,58c.46-.7.76-1.83,1.86-.44.28.36.59,0,.75-.34C57.55,56.75,57.81,56.25,58.14,55.57Z" />
      <path class="cls-2"
        d="M51.57,106.87a2.36,2.36,0,0,1,2.89-.91,2.7,2.7,0,0,1,.78,3.51,2,2,0,0,1-2.91.62A2.31,2.31,0,0,1,51.57,106.87Z" />
      <path class="cls-2"
        d="M41,95.86c1.28.35,2.14.58,3-.22.51-.44,1.4.24,2,.62A1.78,1.78,0,0,1,46.7,98c-.15,1.58-2.42,2.54-3.8,1.64-.27-.17-.2-.41-.22-.64A5,5,0,0,0,41,95.86Z" />
      <path class="cls-2"
        d="M26.79,102.75c.77.7,1.39,1.48,1,2.47a2.83,2.83,0,0,1-3.42,1A2,2,0,0,1,23.25,104c0-.13,0-.4.06-.41,1.1-.16,1.75-1.59,3.12-1Z" />
      <path class="cls-2"
        d="M138.65,3.8a2.14,2.14,0,0,1-3,.73,2.17,2.17,0,0,1-.7-3,2.17,2.17,0,0,1,3.06-.74A2.13,2.13,0,0,1,138.65,3.8Z" />
      <path class="cls-2"
        d="M53,41.14c-.07-.84-1.55-1.2-1.2-2.46.08-.28.12-.65-.23-.75-.59-.18-.4.35-.48.63a1.33,1.33,0,0,1-1.48.91c-.66,0-.26-.7-.47-1.06s.12-.74.62-.86a5.38,5.38,0,0,1,4.12.91,5.16,5.16,0,0,0,.89.54c.69.25,1.65.37,1.35,1.35A2.08,2.08,0,0,1,53,41.14Z" />
      <path class="cls-2"
        d="M87.69,119.51c-.33-.92-1-1.07-2-.67-.42.18-.81-.32-.7-.86a.94.94,0,0,1,1.26-.84,4.69,4.69,0,0,0,2.66.2c.47-.15,1.08,0,1.57-.38s.84-.17,1.17.24a.6.6,0,0,1-.06.91,26.9,26.9,0,0,1-2.4,1.72C88.77,120.1,88.24,119.92,87.69,119.51Z" />
      <path class="cls-2"
        d="M68.68,90.46a1.59,1.59,0,0,0-1.92-.7,1.47,1.47,0,0,1-1.44-.83c-.23-.51.45-.73.85-1a3.88,3.88,0,0,0,1-.59c.56-.62,1.33-.24,2-.3,1.41-.14.36.93.58,1.42a3.81,3.81,0,0,0,.43.76.94.94,0,0,1-1.44,1.2Z" />
      <path class="cls-2"
        d="M85,121.32c.63-1,1.72-1.1,2.81-.24a1.65,1.65,0,0,1,.35,2.45,2,2,0,0,1-2.72.61A2,2,0,0,1,85,121.32Z" />
      <path class="cls-2"
        d="M57.85,44.55c-1-.67-1.72-2.59-1.16-3.14s1.36-1.6,2.6-.69a3.1,3.1,0,0,1,.35,3.49A1.2,1.2,0,0,1,57.85,44.55Z" />
      <path class="cls-2"
        d="M181.54,122.71c1.61.85,2.11-.42,3.2-.73a1.42,1.42,0,0,0,.29,1.22.84.84,0,0,1-.11,1.29,14.73,14.73,0,0,0-2.18,2.62.87.87,0,0,1-.84.45c-.44-.06-.56-.4-.63-.73s-.19-.73.21-1C183,124.67,183,124.66,181.54,122.71Z" />
      <path class="cls-2"
        d="M63,141.42c.73-.71,1.47-1.26,2.5-.72a1.83,1.83,0,0,1,.42,2.68,1.6,1.6,0,0,1-2.49.48C62.56,143.23,62.72,142.27,63,141.42Z" />
      <path class="cls-2"
        d="M73.3,85.1c-.5-1-1.85-1.14-2.23-2.29-.2-.61-.31-1.18.33-1.51a1.32,1.32,0,0,1,1.61.26c.85.73,1.13,1.78,1.78,2.61a.81.81,0,0,1-.08,1.08C74.26,85.64,73.8,85.19,73.3,85.1Z" />
      <path class="cls-2"
        d="M159.91,68.53c1.09.38.39,1.45.73,2.18a15.73,15.73,0,0,1-3,.6c-.53,0-1-2.18-.69-2.75S159.16,68,159.91,68.53Z" />
      <path class="cls-2"
        d="M99.74,30.09a6.51,6.51,0,0,1,1.38.46,1.38,1.38,0,0,1,.76,1.61c-.22.68-.85.67-1.47.54a1.22,1.22,0,0,1-1.12-1.48A1.45,1.45,0,0,0,99,29.44c-.52-.54-.25-1.31.57-1.6a1,1,0,0,1,1.09.26c.3.33,0,.64-.14.91Z" />
      <path class="cls-2"
        d="M39.89,51.71c.33-.25.54-.87,1-.62a1.45,1.45,0,0,1,.84,1.29,2.5,2.5,0,0,0,.61,2.16.51.51,0,0,1,0,.51c-.1.19-.33.13-.52,0s-.37-.23-.54-.22a4.52,4.52,0,0,1-2.09-.58C39.89,53.56,39.4,52.5,39.89,51.71Z" />
      <path class="cls-2"
        d="M113.08,128.37c.36-.41.77-.91,1.33-.71s.19.77.28,1.18c.39,1.7-1.27,2.45-1.67,3.79a.54.54,0,0,1-.49.13.83.83,0,0,1-.46-1C112.37,130.62,112.74,129.5,113.08,128.37Z" />
      <path class="cls-2"
        d="M205.16,48.28a1.29,1.29,0,0,1-.5-1.87,1.92,1.92,0,0,1,2.71-.5c.73.55,1,1.26.39,2A1.79,1.79,0,0,1,205.16,48.28Z" />
      <path class="cls-2"
        d="M157.12,63.12c.69,0,1.32,0,1.94.05.29,0,.81-.56.82,0,0,.77,1.4,1.27.45,2.17a1.6,1.6,0,0,1-1.69.57,1.77,1.77,0,0,1-1.34-1.27C157.2,64.18,157.18,63.65,157.12,63.12Z" />
      <path class="cls-2"
        d="M21.14,99.19c.48-.42,1-.87,1.76-.29a2.83,2.83,0,0,1,.2,3.26c-.5.56-.82.15-1.2-.2C20.66,100.83,20.41,100,21.14,99.19Z" />
      <path class="cls-2"
        d="M186.35,46.55c.56-.78,1.27-1.38,2.38-.63.65.44,1.14,1,.64,1.83a2.13,2.13,0,0,1-2.58.7A1.35,1.35,0,0,1,186.35,46.55Z" />
      <path class="cls-2"
        d="M166.12,47.72a1.75,1.75,0,0,1-2.57.61,1.22,1.22,0,0,1-.44-1.88,1.7,1.7,0,0,1,2.44-.48C166.27,46.37,166.72,47,166.12,47.72Z" />
      <path class="cls-2"
        d="M39.79,112.39c-1.13-.19-.77-.87-.44-1.46a2.67,2.67,0,0,1,2.66-.6c.57.49,1,1.3.37,1.77S40.88,113.63,39.79,112.39Z" />
      <path class="cls-2"
        d="M176,120.62c2.32,1.18,2.64-.66,3.26-2,.15-.31-.06-.78.57-.51a.64.64,0,0,1,.43.92,5.23,5.23,0,0,1-3.47,3.23c-.69.27-.91.06-.71-.67A3.49,3.49,0,0,0,176,120.62Z" />
      <path class="cls-2"
        d="M209.7,94.69a1.17,1.17,0,0,1-.15-1.75,1.91,1.91,0,0,1,2.42-.39,1.27,1.27,0,0,1,.43,1.8A2.2,2.2,0,0,1,209.7,94.69Z" />
      <path class="cls-2" d="M227,57.08c-.65.07-.83,1.51-1.77.8a1.61,1.61,0,1,1,1.69-2.71A1.32,1.32,0,0,1,227,57.08Z" />
      <path class="cls-2"
        d="M216.23,18a1.46,1.46,0,0,1-.42-2.06,1.33,1.33,0,0,1,1.93-.44,1.37,1.37,0,0,1,.57,2A1.46,1.46,0,0,1,216.23,18Z" />
      <path class="cls-2"
        d="M84.61,24.74a1.44,1.44,0,0,1-.31-2.08,1.34,1.34,0,0,1,2.06-.26,1.32,1.32,0,0,1,.33,1.94A1.45,1.45,0,0,1,84.61,24.74Z" />
      <path class="cls-2"
        d="M46.86,57.57c-.29.45-.31,1.14-.92,1.22a1.49,1.49,0,0,1-1.75-1c-.27-.8.29-1.13.9-1.36a5.52,5.52,0,0,1,.72-.06c.54-.12,1-1,1.62-.19S46.91,57.06,46.86,57.57Z" />
      <path class="cls-2"
        d="M42,90.38c.61.4,1,1,.53,1.6a1.56,1.56,0,0,1-2.18.51c-.56-.34-1.21-1-.77-1.59A1.61,1.61,0,0,1,42,90.38Z" />
      <path class="cls-2"
        d="M81.55,110.88c-.29-.44-.81-.19-1.19-.46-.7-.48-1.41-1-.9-1.87a1.53,1.53,0,0,1,1.87-.65,1.17,1.17,0,0,1,.71,1.86,11.3,11.3,0,0,0-.51,1.12Z" />
      <path class="cls-2"
        d="M34.9,100.23c.53.51,1.38,1.15.89,2.11-.38.72-1.19.53-1.82.09s-1.26-1.26-.85-2.11C33.43,99.67,34.12,99.64,34.9,100.23Z" />
      <path class="cls-2"
        d="M164.84,56.75c.5.46,1.36,1,1,1.64-.72,1.29-1.84-.17-2.82,0-.49.09-.64-.65-.48-1.15A1.49,1.49,0,0,1,164.84,56.75Z" />
      <path class="cls-2"
        d="M35,62.17c-.09-.51-1.39-1,0-1.6.28-.12,1-.3.4-.89-.33-.31-.41-.54-.08-.83a1,1,0,0,1,1-.11.57.57,0,0,1,.43.68,10.51,10.51,0,0,0-.07,2.17C36.57,62.27,35.58,62.61,35,62.17Z" />
      <path class="cls-2"
        d="M110.58,118.39c.71-1.16,1.5-.65,2-.34a1.4,1.4,0,0,1,.34,2c-.45.75-1.15.65-1.74.21C110.36,119.69,109.91,119,110.58,118.39Z" />
      <path class="cls-2"
        d="M33.66,92.57c-.45-.45-.94-1.09-.35-1.69a1.5,1.5,0,0,1,2.13-.11c.57.45.89,1,.4,1.64A1.45,1.45,0,0,1,33.66,92.57Z" />
      <path class="cls-2"
        d="M95.82,121.9c-.36.68-1,.36-1.69-.08a1.08,1.08,0,0,1-.32-1.74,1.19,1.19,0,0,1,1.8-.29C96.44,120.31,96.4,121,95.82,121.9Z" />
      <path class="cls-2"
        d="M109.38,140.83a1.24,1.24,0,0,1-2.07.23c-.43-.36-1.21-.84-.68-1.39a1.84,1.84,0,0,1,2.41-.39A1,1,0,0,1,109.38,140.83Z" />
      <path class="cls-2"
        d="M157.94,61.51c-.33.47-2.26.44-2.92,0s-.34-.77-.05-1.09a1.59,1.59,0,0,1,2.31-.38C157.75,60.36,158.21,60.82,157.94,61.51Z" />
      <path class="cls-2"
        d="M153.7,148.12a1.27,1.27,0,0,1-.37-1.8,1.31,1.31,0,1,1,2.18,1.45A1.28,1.28,0,0,1,153.7,148.12Z" />
      <path class="cls-2"
        d="M155.55,2.93c.52-.48,1-1.17,1.85-.55s.37,1.27,0,1.82-.93,1.13-1.69.66S155.27,3.6,155.55,2.93Z" />
      <path class="cls-2"
        d="M200.77,81.93c-.78.63-1.42,1.34-2.49,1.21a1,1,0,0,1-.92-.65c-.13-.5.26-.69.64-.79.8-.22,1.79,0,2.24-1,.09-.19.47-.09.63.14A.8.8,0,0,1,200.77,81.93Z" />
      <path class="cls-2"
        d="M97.65,132.3a1.48,1.48,0,0,1,1.82-.67,1.5,1.5,0,0,1,.45,2.06c-.37.53-.9,1-1.59.42S97.15,133.14,97.65,132.3Z" />
      <path class="cls-2"
        d="M192.87,80.08c.7.21,1.52.28,1.53,1.28,0,.65-.45,1-1,1.07s-1.32.45-1.64-.42a1.15,1.15,0,0,1,.71-1.65,2.22,2.22,0,0,0,.46-.29Z" />
      <path class="cls-2"
        d="M161.26,113c-1.24.27-.25-1.17-1-1.27.21-.26.7-.08.82-.48-1.73-1.33-1.73-1.33.74-2.77-.31.91.51,2.14.15,2.28-1,.39-.33,1.39-.95,1.8C160.88,112.6,161.08,112.86,161.26,113Z" />
      <path class="cls-2"
        d="M192.16,103.28l0-.52a1.5,1.5,0,0,0,1.51.39c1.22-.51,1.72.61,2.49,1.09.36.23.19.62,0,.9a.48.48,0,0,1-.77,0,1.13,1.13,0,0,0-1.18-.36c-.64.1-1.25,0-1.18-.93C193,103.48,192.51,103.35,192.16,103.28Z" />
      <path class="cls-2"
        d="M165.92,81.44a3.94,3.94,0,0,0,1.72-1.33.91.91,0,0,1,1.29-.22c.35.18.82.29.84.74s-.5.66-.83.91C168.08,82.17,167.17,81.68,165.92,81.44Z" />
      <path class="cls-2"
        d="M65.75,107.39a2.09,2.09,0,0,1-.43-2.23,1.08,1.08,0,0,1,1.64-.37c.94.8-.18,1.54-.24,2.33C66.69,107.59,66.26,107.68,65.75,107.39Z" />
      <path class="cls-2"
        d="M41.12,101.74c-.43.54-1,.92-1.62.43a1.28,1.28,0,0,1-.23-1.73,1.17,1.17,0,0,1,1.63-.5C41.63,100.41,41.47,101.11,41.12,101.74Z" />
      <path class="cls-2"
        d="M42.23,68.37c-.43.56-1,.89-1.66.51a1.1,1.1,0,0,1-.37-1.65,1.14,1.14,0,0,1,1.72-.53C42.62,67.13,42.48,67.77,42.23,68.37Z" />
      <path class="cls-2"
        d="M62.92,60.19a.81.81,0,0,1-1.06.41c-.36-.13-.82-.14-1-.56s.14-.71.44-1a.62.62,0,0,1,.25-.14c.63-.16.89-1.53,1.71-.73C63.88,58.81,62.62,59.48,62.92,60.19Z" />
      <path class="cls-2"
        d="M73.48,46.35c.92-.54,1.83-.44,2.12.35a3.12,3.12,0,0,1-.47,2.12c-.19.38-.81.22-1.19-.09s-.4-.66-.07-.87C74.91,47.19,73.91,46.81,73.48,46.35Z" />
      <path class="cls-2"
        d="M106.8,45.48a1.1,1.1,0,0,1-.38-1.64,1,1,0,0,1,1.49-.46,1.38,1.38,0,0,1,.42,1.94C108,46,107.37,45.8,106.8,45.48Z" />
      <path class="cls-2"
        d="M198.74,53.94a1.12,1.12,0,0,1,.42-1.25c.52-.54,1-1-.15-1.47a.6.6,0,0,1-.2-.89.8.8,0,0,1,.87-.4.82.82,0,0,1,.78.58C200.66,51.15,199.44,53.62,198.74,53.94Z" />
      <path class="cls-2"
        d="M74.67,140.6a1.13,1.13,0,0,1,1.57-.17A1.06,1.06,0,0,1,76.5,142c-.34.45-1,1-1.59.53A1.58,1.58,0,0,1,74.67,140.6Z" />
      <path class="cls-2"
        d="M81.87,78.93c-.31.59-.65,1.17-.92,1.78a3.53,3.53,0,0,0-.12.88.91.91,0,0,0,0-.16c-.25,0-.64,0-.71-.12-.36-.68-.09-1.57-.84-2.17-.1-.07.4-.52.77-.33a4.72,4.72,0,0,0,1.86.17Z" />
      <path class="cls-2"
        d="M117.31,150.36a1.28,1.28,0,0,1-.12-1.73c.39-.6.92-.61,1.5-.17s.84,1,.34,1.62A1.28,1.28,0,0,1,117.31,150.36Z" />
      <path class="cls-2"
        d="M168.52,68.27a1,1,0,0,1-.21-1.46,1.49,1.49,0,0,1,1.9-.15c.57.32.38.88.09,1.26A1.33,1.33,0,0,1,168.52,68.27Z" />
      <path class="cls-2"
        d="M63,71.82c.22.87,1.31,1.67.23,2.36a1.35,1.35,0,0,1-1.82-.66C60.8,72.19,62.25,72.38,63,71.82Z" />
      <path class="cls-2"
        d="M33.76,88.52c-1,.34-1.86.67-2.73.89a.84.84,0,0,1-1.1-.52c-.11-.46.36-.67.73-.73C31.63,88,32.63,87.6,33.76,88.52Z" />
      <path class="cls-2"
        d="M98.87,144.09c-.64.24-1,1-1.78.44-.58-.39-.83-.88-.43-1.48.27-.4.67-.87,1.18-.44S98.91,143.35,98.87,144.09Z" />
      <path class="cls-2"
        d="M51.9,97.45c.7.37,1.15.79.62,1.4-.35.41-.85.88-1.49.36a1.3,1.3,0,0,1-.48-1.78C51.05,96.57,51.52,97.35,51.9,97.45Z" />
      <path class="cls-2" d="M68.87,45c-1.58.8-2.93,1.16-3.51-1C66.38,44.58,67.81,43.75,68.87,45Z" />
      <path class="cls-2"
        d="M24.68,94.12c-.46-.34-.76-.74-.42-1.24a1.46,1.46,0,0,1,1.94-.48.82.82,0,0,1,.27,1.27A1.36,1.36,0,0,1,24.68,94.12Z" />
      <path class="cls-2"
        d="M86.57,86.75c1,.06.72.78.57,1.25a5,5,0,0,1-.8,1.18c-.3-.74-1.5-.37-1.65-1.31l0,.07c.07-.17.32-.38-.1-.46v0Z" />
      <path class="cls-2"
        d="M34.88,88.39c.92-.18,1.51-1.38,2.55-.38.34.33.52.82.08,1.15C36.44,90,35.73,89.1,34.88,88.39Z" />
      <path class="cls-2"
        d="M103.09,141.88c-.4-.44-.82-.91-.34-1.51a1.06,1.06,0,0,1,1.52-.38,1.11,1.11,0,0,1-1.18,1.89Z" />
      <path class="cls-2"
        d="M223.55,69.34c.52-.21.84-1.44,1.44-.88s-.45,1.37-.65,2.11a.64.64,0,0,1-1.08.25C222.77,70.31,223.19,69.84,223.55,69.34Z" />
      <path class="cls-2"
        d="M71.37,94A1.26,1.26,0,0,1,73,93.83a1.15,1.15,0,0,1,.28,1.46.72.72,0,0,1-1.21.22C71.72,95.13,71.08,94.74,71.37,94Z" />
      <path class="cls-2"
        d="M200.15,102.88c-.47-.34-.66-.72-.3-1.24a1.2,1.2,0,0,1,1.66-.42c.62.33.5.92.17,1.38A1,1,0,0,1,200.15,102.88Z" />
      <path class="cls-2"
        d="M76.68,65.26A3.41,3.41,0,0,1,78,65.2a3.37,3.37,0,0,1,1.27.92c.19.22-.1.64-.38.63-.54,0-1.16.36-1.64-.24C76.93,66.14,76.51,65.81,76.68,65.26Z" />
      <path class="cls-2"
        d="M144.47,130a1.16,1.16,0,0,1-.31-1.46,1,1,0,0,1,1.52-.26c.51.34.81.78.35,1.33A1.28,1.28,0,0,1,144.47,130Z" />
      <path class="cls-2"
        d="M81.53,110.88c-.1.48.32.36.55.47.54.24,1,.6.83,1.23s-.59.58-1,.67a.9.9,0,0,1-1.07-.58.83.83,0,0,1,.48-1.18c.23-.12.59-.23.25-.61Z" />
      <path class="cls-2"
        d="M60.28,133.88a1,1,0,0,1-.25-1.44c.33-.53.81-.93,1.46-.54s.5.92.21,1.42A1,1,0,0,1,60.28,133.88Z" />
      <path class="cls-2"
        d="M78.15,152.4c.35-.42.76-.82,1.35-.43s.4,1,.11,1.42-.83.92-1.45.44S77.86,152.87,78.15,152.4Z" />
      <path class="cls-2"
        d="M137,28.21c-.39.44-.78.81-1.38.42a.81.81,0,0,1-.22-1.34,1.17,1.17,0,0,1,1.52-.46C137.47,27.14,137.22,27.76,137,28.21Z" />
      <path class="cls-2"
        d="M203.43,51.38c-.41,1.13-.36,2.06-1.1,2.64-.27.21-.6.45-.92.22s-.15-.61,0-.89A5.9,5.9,0,0,1,203.43,51.38Z" />
      <path class="cls-2"
        d="M156.23,27.23a.89.89,0,0,1-.1-1.32c.32-.48.75-.77,1.33-.34a.93.93,0,0,1,.3,1.29A1.27,1.27,0,0,1,156.23,27.23Z" />
      <path class="cls-2"
        d="M71.69,141.36a1.27,1.27,0,0,1-1.69.3c-.39-.23-.79-.62-.46-1.06.44-.59,1.1-.47,1.71-.14C71.61,140.65,72,140.87,71.69,141.36Z" />
      <path class="cls-2"
        d="M39.09,61.72a1,1,0,0,1,1.39-.17.9.9,0,0,1,.3,1.28.88.88,0,0,1-1.39.19A.91.91,0,0,1,39.09,61.72Z" />
      <path class="cls-2"
        d="M202.22,96.8c-.14-.47-.65-1-.38-1.58.08-.2.56-.22.86-.32-.7.91,1.47,1,.65,1.91A.74.74,0,0,1,202.22,96.8Z" />
      <path class="cls-2"
        d="M214.13,50.75c-.39.37-.81.64-1.21.27a1,1,0,0,1,.06-1.44c.25-.3.63-.75,1.09-.29S214.23,50.3,214.13,50.75Z" />
      <path class="cls-2"
        d="M92.51,42.9a.63.63,0,0,1-1,.24A1.18,1.18,0,0,1,91,41.61a.62.62,0,0,1,1-.31A1.4,1.4,0,0,1,92.51,42.9Z" />
      <path class="cls-2"
        d="M118.91,156a.82.82,0,0,1-.32-1.15c.26-.36.65-.78,1.24-.4s.73.78.42,1.25A1,1,0,0,1,118.91,156Z" />
      <path class="cls-2" d="M185.49,87c-.63.47-.82,1.69-2,1-.34-.2-.74-.46-.44-.9C183.76,86,184.64,87,185.49,87Z" />
      <path class="cls-2"
        d="M114.08,47.07c-.26.66-1,.66-1.49,1a1.48,1.48,0,0,0-.81-1.44.71.71,0,0,1-.42-.85.55.55,0,0,1,.52-.43.83.83,0,0,1,.81.56C113,46.5,113.14,47.23,114.08,47.07Z" />
      <path class="cls-2"
        d="M181.83,119.37c.2.61-.43,1.33.59,1.54.38.07.18.38.06.55a1.79,1.79,0,0,1-.42.34c-.39-.52-1.16-.68-1.45-1.16s.47-.69.81-1A4.27,4.27,0,0,1,181.83,119.37Z" />
      <path class="cls-2" d="M82,121.84a.85.85,0,0,1-.07-1.2.78.78,0,0,1,1.16-.19A.89.89,0,0,1,82,121.84Z" />
      <path class="cls-2"
        d="M171.69,107.59l1.52-.44a.17.17,0,0,1,.13,0c.21.18.3.61.19.62-.82,0-1,1-1.73,1C171.61,108.82,171.54,108.14,171.69,107.59Z" />
      <path class="cls-2"
        d="M16.41,98.07a1.17,1.17,0,0,1,1.53-.15c.47.28.34.7.09,1a1,1,0,0,1-1.45.17C16.18,98.83,16.31,98.41,16.41,98.07Z" />
      <path class="cls-2"
        d="M153.1,60.76a.94.94,0,0,1-.13-1.31.68.68,0,0,1,1.11-.16c.35.32.81.73.33,1.22A1,1,0,0,1,153.1,60.76Z" />
      <path class="cls-2"
        d="M220.88,49.26a1.12,1.12,0,0,1,1.4-.14c.5.24.2.6,0,.81-.4.36-.76,1-1.47.54C220.34,50.19,220.46,49.81,220.88,49.26Z" />
      <path class="cls-2" d="M65.5,136.19c-.32-.34-.49-.7-.23-1.07a.8.8,0,1,1,1.28.95A.79.79,0,0,1,65.5,136.19Z" />
      <path class="cls-2"
        d="M61.13,53.86a.73.73,0,0,1,1.15-.15.85.85,0,0,1,.3,1.16.71.71,0,0,1-1.11.25A1,1,0,0,1,61.13,53.86Z" />
      <path class="cls-2"
        d="M95.58,29.8c.56.15.42-.38.6-.6.31-.39.67-.75,1.2-.3a.76.76,0,0,1,0,1.16.71.71,0,0,1-1.22,0c-.16-.2-.23-.61-.61-.28Z" />
      <path class="cls-2"
        d="M48.88,96.4c0-.64-1.33-.55-.88-1.44a.51.51,0,0,1,.86-.17c.42.45,1,.89.92,1.56C49.73,96.67,49.24,96.66,48.88,96.4Z" />
      <path class="cls-2"
        d="M132.64,28.69a.76.76,0,0,1-.24-1.11.76.76,0,0,1,1.14-.23.71.71,0,0,1,.21,1A.73.73,0,0,1,132.64,28.69Z" />
      <path class="cls-2"
        d="M35.77,109.94a.88.88,0,0,1,0-1.19c.28-.38.7-.6,1.12-.27a.79.79,0,0,1,0,1.17A.84.84,0,0,1,35.77,109.94Z" />
      <path class="cls-2"
        d="M186.7,121.18c-.29-.39-.56-.81-.06-1.24s.8-.44,1.18,0,.24.89-.09,1.29S187.08,121.53,186.7,121.18Z" />
      <path class="cls-2"
        d="M154.24,31.15c-.35-.35-.5-.78-.18-1.16a.67.67,0,0,1,1-.11.93.93,0,0,1,.21,1.19C155,31.49,154.63,31.33,154.24,31.15Z" />
      <path class="cls-2"
        d="M20.94,80.59c.34-.32.67-.73,1.24-.38a.78.78,0,0,1,.29,1.14,1,1,0,0,1-1.31.27C20.72,81.38,20.76,81,20.94,80.59Z" />
      <path class="cls-2"
        d="M100.47,157.52a.76.76,0,0,1-.23-1.16c.25-.38.6-.67,1.1-.39s.44.75.22,1.14A.8.8,0,0,1,100.47,157.52Z" />
      <path class="cls-2"
        d="M21,94.17c-.24-.25-.55-.53-.28-.85a.91.91,0,0,1,1.3-.16c.32.23.54.62.17,1A.89.89,0,0,1,21,94.17Z" />
      <path class="cls-2"
        d="M99.42,49.46l-.51.27c0-.26-.21-.28-.41-.26-.66.07-1.07-.17-1-.87,0-.24-.18-.68.29-.64S99,48,99,48.87C99.05,49.07,99.29,49.26,99.42,49.46Z" />
      <path class="cls-2"
        d="M165.06,25.41c.34-.58.72-.86,1.26-.5a.65.65,0,0,1,.16,1,1,1,0,0,1-1.29.35C164.67,26,165,25.62,165.06,25.41Z" />
      <path class="cls-2"
        d="M215.36,40.88l.46-.08a3,3,0,0,1,.55,1.66,2.41,2.41,0,0,0-2.48.38v0C214,41.91,215.24,41.82,215.36,40.88Z" />
      <path class="cls-2"
        d="M58.92,39.41a.77.77,0,0,1-.12-1.07.7.7,0,0,1,1-.2A.74.74,0,0,1,60,39.29.78.78,0,0,1,58.92,39.41Z" />
      <path class="cls-2"
        d="M87.79,29.86c-.35-.34-.75-.77-.46-1.23s.88-.23,1.2,0a.84.84,0,0,1,.19,1.17C88.51,30.12,88.15,30,87.79,29.86Z" />
      <path class="cls-2" d="M169,74l.11.52a9.73,9.73,0,0,0-2.81,1.2l-.23-.48A7.41,7.41,0,0,1,169,74Z" />
      <path class="cls-2"
        d="M212.74,77.33a.86.86,0,0,1-1.16.15c-.34-.18-.32-.47-.11-.73a.8.8,0,0,1,1-.3A.58.58,0,0,1,212.74,77.33Z" />
      <path class="cls-2"
        d="M170.56,90.48a3.79,3.79,0,0,1,0-.84,1.5,1.5,0,0,1,.92-1.19c.26-.08.45.17.5.43.16.71-.3,1.05-.82,1.35C171,90.32,170.8,90.38,170.56,90.48Z" />
      <path class="cls-2"
        d="M191.44,116.46c-.27.23-.46.8-.89.51s-.29-.84-.12-1.21a.79.79,0,0,1,1-.33C192,115.7,191.53,116.1,191.44,116.46Z" />
      <path class="cls-2"
        d="M198.84,118.62c-1-.11-1.74-.19-1.83-1.17,0-.3.12-.49.41-.45C198.25,117.11,198.4,117.82,198.84,118.62Z" />
      <path class="cls-2"
        d="M204.78,65.12a.59.59,0,0,1,.16.89.8.8,0,0,1-1.14.32.55.55,0,0,1-.2-.88A1,1,0,0,1,204.78,65.12Z" />
      <path class="cls-2" d="M166.7,52.28a.7.7,0,0,1-.12-1c.3-.47.7-.4,1.12-.09s.49.65.2,1A1,1,0,0,1,166.7,52.28Z" />
      <path class="cls-2"
        d="M67.92,92.22a.78.78,0,0,1-.14-1,.67.67,0,0,1,.93,0A.6.6,0,0,1,69,92,.74.74,0,0,1,67.92,92.22Z" />
      <path class="cls-2" d="M192.38,38.56c-.46-.31-.54-.68-.32-1a.64.64,0,0,1,.89-.24.7.7,0,1,1-.57,1.28Z" />
      <path class="cls-2"
        d="M145.8,23.17c-.12-.32,0-.46.33-.45.24.36.48,0,.73,0a.63.63,0,0,1,.65.48.7.7,0,0,1-.39.83c-.31.16-.54,0-.79-.17S146.35,23.13,145.8,23.17Z" />
      <path class="cls-2" d="M94.86,47a.68.68,0,0,1-.28-1,.68.68,0,0,1,1-.19.71.71,0,0,1-.75,1.2Z" />
      <path class="cls-2"
        d="M50.28,75.06a.63.63,0,0,1-1,.14c-.41-.28-.69-.67-.42-1.11a.8.8,0,0,1,1.17-.2C50.57,74.17,50.6,74.56,50.28,75.06Z" />
      <path class="cls-2"
        d="M45.82,69.29a.72.72,0,0,1-.21-1c.24-.41.62-.68,1.1-.38s.31.71.11,1.05A.78.78,0,0,1,45.82,69.29Z" />
      <path class="cls-2"
        d="M206.54,110.36c.43-.43.13-1.48,1.13-1.37.25,0,.55.28.45.47A1.82,1.82,0,0,1,206.54,110.36Z" />
      <path class="cls-2"
        d="M20.15,118c-.24.31-.52.59-1,.32a.63.63,0,0,1-.21-1c.22-.35.53-.57,1-.34S20.31,117.66,20.15,118Z" />
      <path class="cls-2"
        d="M122.44,143.32a.9.9,0,0,1-.27-1.15c.23-.37.57-.26.88-.07a.71.71,0,0,1,.27,1.1A.57.57,0,0,1,122.44,143.32Z" />
      <path class="cls-2"
        d="M103.2,149.75c.31-.33.66-.47,1-.16a.65.65,0,0,1,0,1,.61.61,0,0,1-.89.12A.66.66,0,0,1,103.2,149.75Z" />
      <path class="cls-2"
        d="M76,56.74c-.23-.2-.49-.46-.28-.83a.62.62,0,0,1,1-.27.65.65,0,0,1,.26,1C76.72,57,76.36,57,76,56.74Z" />
      <path class="cls-2"
        d="M35.89,82.8c-.25-.26-.52-.57-.26-.89a.93.93,0,0,1,1.2-.13.6.6,0,0,1,.14.9A.88.88,0,0,1,35.89,82.8Z" />
      <path class="cls-2"
        d="M169.68,70.31l-.21.46c-.47.26-.92.6-1.49.17-.33-.25-.2-.51,0-.76a.71.71,0,0,1,1-.35A7.48,7.48,0,0,1,169.68,70.31Z" />
      <path class="cls-2"
        d="M209.56,40.81c-.64.9-1.09,1.35-1.89,1.17a.4.4,0,0,1-.16-.35C207.9,40.93,208.65,41.13,209.56,40.81Z" />
      <path class="cls-2"
        d="M200.43,40.07c0-.2-.09-.34-.05-.38a1.75,1.75,0,0,1,1.53-.63c.05,0,.16.29.12.35A1.74,1.74,0,0,1,200.43,40.07Z" />
      <path class="cls-2"
        d="M63.57,49.62c-.12.44.26.42.51.53s.7.45.41.9a.62.62,0,0,1-.9.17c-.36-.24-.53-.59-.22-1,.15-.18.61-.23.23-.62Z" />
      <path class="cls-2"
        d="M70.06,147.42c-.21.2-.46.48-.74.26s-.28-.79-.1-1.16a.45.45,0,0,1,.73-.11A.67.67,0,0,1,70.06,147.42Z" />
      <path class="cls-2" d="M196.06,45.2c.95-.42,1.67-.69,2.64,0A3.28,3.28,0,0,1,196.06,45.2Z" />
      <path class="cls-2"
        d="M38.36,86.65c-.21-.18-.59-.33-.28-.67a1.12,1.12,0,0,1,1.2-.32.51.51,0,0,1,.24.84C39.23,87,38.8,86.87,38.36,86.65Z" />
      <path class="cls-2"
        d="M22.66,108.79a.81.81,0,0,1-.25-1.09c.13-.22.39-.51.66-.16s.64.68.3,1.14A.59.59,0,0,1,22.66,108.79Z" />
      <path class="cls-2"
        d="M155.74,1.3c-.34-.28-.48-.58-.28-.93a.64.64,0,0,1,1-.22.67.67,0,0,1,.18,1A.7.7,0,0,1,155.74,1.3Z" />
      <path class="cls-2"
        d="M79.2,151.12a.61.61,0,0,1-.27-.91c.2-.37.48-.64.95-.39a.62.62,0,0,1,.24.89A.7.7,0,0,1,79.2,151.12Z" />
      <path class="cls-2"
        d="M185.32,116.75c.31-.37.67-.54,1.05-.32a.67.67,0,0,1,.18.91.65.65,0,0,1-1,.26C185.21,117.4,185.28,117,185.32,116.75Z" />
      <path class="cls-2"
        d="M57,76.72a.59.59,0,0,1-.07-.88.63.63,0,0,1,.91,0,.58.58,0,0,1,.12.89C57.65,77,57.3,76.91,57,76.72Z" />
      <path class="cls-2"
        d="M72.37,62.65a.58.58,0,0,1-.88.24.59.59,0,0,1-.16-.88.58.58,0,0,1,.77-.17A.55.55,0,0,1,72.37,62.65Z" />
      <path class="cls-2" d="M117.28,127.05a.59.59,0,0,1-.88.23.64.64,0,1,1,.64-1.11A.6.6,0,0,1,117.28,127.05Z" />
      <path class="cls-2"
        d="M162.25,82c-.31-.22-.4-.47-.2-.66a.85.85,0,0,1,1.17-.18.35.35,0,0,1,0,.61C162.91,82,162.6,82.27,162.25,82Z" />
      <path class="cls-2"
        d="M221.15,29c-.68-.49-1.32-.65-1.34-1.36a.31.31,0,0,1,.39-.31C221,27.56,220.87,28.24,221.15,29Z" />
      <path class="cls-2"
        d="M94.52,133.53a.65.65,0,0,1-.17-.91.61.61,0,0,1,.86-.26.6.6,0,0,1,.15.88A.67.67,0,0,1,94.52,133.53Z" />
      <path class="cls-2"
        d="M106.25,127.75c.47-.29.81-.8,1.38-.62.27.09.22.44.1.64C107.3,128.47,106.74,127.42,106.25,127.75Z" />
      <path class="cls-2"
        d="M102.71,146.06c0,.71.17,1.34-.6,1.6a.48.48,0,0,1-.58-.36C101.41,146.52,102.07,146.39,102.71,146.06Z" />
      <path class="cls-2"
        d="M78.86,57.48a.57.57,0,0,1,0-.89.55.55,0,0,1,.79-.09.6.6,0,0,1,.17.9A.61.61,0,0,1,78.86,57.48Z" />
      <path class="cls-2" d="M74.28,89.77c-.34.16-.66.46-1.07.14s-.16-.55,0-.76.63-.51,1-.18S74.42,89.5,74.28,89.77Z" />
      <path class="cls-2" d="M53.64,71.91a.61.61,0,0,1,.89-.07.65.65,0,0,1-.83,1A.62.62,0,0,1,53.64,71.91Z" />
      <path class="cls-2"
        d="M69.15,55.55a.91.91,0,0,1,1,0,.6.6,0,0,1,.11.9c-.25.31-.54.17-.77,0A.84.84,0,0,1,69.15,55.55Z" />
      <path class="cls-2" d="M88.36,33.51a.62.62,0,0,1-.19-.87.62.62,0,1,1,1.07.58A.67.67,0,0,1,88.36,33.51Z" />
      <path class="cls-2"
        d="M146.26,35.05c-.08.55.24,1.29-.59,1.42-.26,0-.55-.08-.53-.35C145.17,35.48,145.74,35.28,146.26,35.05Z" />
      <path class="cls-2"
        d="M36.18,86.54a.7.7,0,0,1-1,0c-.27-.2-.37-.46-.12-.72s.53-.43.9-.2A.59.59,0,0,1,36.18,86.54Z" />
      <path class="cls-2"
        d="M171.07,106.19a.68.68,0,0,1,.26.9.47.47,0,0,1-.74.18.6.6,0,0,1-.28-.88A.52.52,0,0,1,171.07,106.19Z" />
      <path class="cls-2"
        d="M148.72,145.78a.62.62,0,0,1-.19-.9.63.63,0,0,1,.86-.29c.38.2.31.55.14.86A.61.61,0,0,1,148.72,145.78Z" />
      <path class="cls-2"
        d="M168.13,90.93c-.21-.13-.39-.33-.24-.58a.72.72,0,0,1,1-.31.45.45,0,0,1,.18.73A.69.69,0,0,1,168.13,90.93Z" />
      <path class="cls-2" d="M175.51,80c-.19.27-.35.59-.78.37s-.43-.51-.15-.81.54-.62,1-.32S175.65,79.76,175.51,80Z" />
      <path class="cls-2"
        d="M31.58,74.41a.55.55,0,0,1-.11-.87.59.59,0,0,1,.9,0,.56.56,0,0,1,.09.78C32.23,74.64,31.92,74.64,31.58,74.41Z" />
      <path class="cls-2"
        d="M208.06,44a.54.54,0,0,1-.66.21c-.42-.1-.82.35-1.22,0-.06,0,0-.3,0-.37.39-.42.88-.24,1.35-.11A3,3,0,0,1,208.06,44Z" />
      <path class="cls-2"
        d="M95.34,50.16a.57.57,0,0,1-.12-.85.6.6,0,0,1,.91-.07.55.55,0,0,1,.16.78C96.09,50.35,95.77,50.44,95.34,50.16Z" />
      <path class="cls-2" d="M128.84,123.81a.63.63,0,1,1,.88-.24C129.54,123.93,129.23,124,128.84,123.81Z" />
      <path class="cls-2"
        d="M16.29,116.66a.53.53,0,0,1,.74-.25.49.49,0,0,1,.19.74.53.53,0,0,1-.73.24C16.18,117.23,16.2,116.93,16.29,116.66Z" />
      <path class="cls-2"
        d="M195.76,89.3c.21-.23.45-.42.75-.13a.67.67,0,0,1,0,.93.44.44,0,0,1-.65.08C195.48,89.92,195.54,89.61,195.76,89.3Z" />
      <path class="cls-2"
        d="M147.63,47.39a.45.45,0,0,1-.65.16.55.55,0,0,1-.1-.87.47.47,0,0,1,.63-.15C147.87,46.78,147.76,47.11,147.63,47.39Z" />
      <path class="cls-2"
        d="M146.26,59.14c-.25.22-.57.44-.9.19a.5.5,0,0,1-.07-.78.83.83,0,0,1,1-.07C146.47,58.61,146.44,58.91,146.26,59.14Z" />
      <path class="cls-2"
        d="M141.27,12.42c-.32-.26-.41-.58-.17-.88a.54.54,0,0,1,.78-.11.52.52,0,0,1,.16.85A.54.54,0,0,1,141.27,12.42Z" />
      <path class="cls-2"
        d="M75.91,76.19a.58.58,0,0,1,.85-.17.55.55,0,0,1,.15.76.52.52,0,0,1-.84.18A.53.53,0,0,1,75.91,76.19Z" />
      <path class="cls-2" d="M81,63a.57.57,0,0,1,.76-.16.59.59,0,0,1,.32.84.55.55,0,0,1-.76.17A.6.6,0,0,1,81,63Z" />
      <path class="cls-2" d="M213.05,42.9l-1.4.15c.44-.56.89-.89,1.41-.1Z" />
      <path class="cls-2" d="M223.42,31.78l-.41.37c-.19-.36-.6-.84-.13-1.09C223.18,30.91,223.3,31.48,223.42,31.78Z" />
      <path class="cls-2" d="M192.34,107.87c-.54.27-.84-.22-1.23-.42C191.7,107,192,107.67,192.34,107.87Z" />
      <path class="cls-2" d="M194.25,108.19l-.61-.41c.1-.23.27-.47.51-.33S194.28,107.93,194.25,108.19Z" />
      <path class="cls-2" d="M223,32.13c.23.23.39.49.16.76s-.36.08-.54,0C223.09,32.8,222.93,32.4,223,32.13Z" />
      <path class="cls-2" d="M216,40.57c.14-.09.29-.26.43-.25s.23.24.18.42Z" />
      <path class="cls-1" d="M94.59,109.76l-.2.27-.13-.27Z" />
      <path class="cls-1" d="M195.18,117l.22,0v.2l-.17-.18Z" />
      <path class="cls-1" d="M200.37,115.63c-.05.12-.09.33-.14.33s-.17-.16-.14-.29Z" />
      <path class="cls-2" d="M213.89,42.84c-.19-.1-.39-.21-.46.11h0l.29-.37.18.27Z" />
      <path class="cls-2" d="M213.43,43c-.11-.2-.25-.12-.38-.05V43c0-.15,0-.37.24-.29.06,0,.08.19.12.29Z" />

    </g>
  </g>
</svg>